<svg version="1.0" xmlns="http://www.w3.org/2000/svg"
 width="499.000000pt" height="499.000000pt" viewBox="0 0 499.000000 499.000000"
 preserveAspectRatio="xMidYMid meet">

<g transform="translate(0.000000,499.000000) scale(0.100000,-0.100000)"
fill="#000000" stroke="none">
<path d="M2260 4980 c-313 -33 -579 -110 -865 -250 -661 -323 -1141 -918
-1320 -1635 -55 -220 -69 -341 -69 -600 0 -259 14 -380 69 -600 44 -176 94
-313 175 -481 130 -271 265 -459 485 -679 220 -220 408 -355 679 -485 234
-113 472 -187 731 -226 168 -26 532 -26 700 0 259 39 497 113 731 226 271 130
459 265 679 485 220 220 355 408 485 679 113 234 187 472 226 731 26 168 26
532 0 700 -108 713 -499 1331 -1091 1727 -293 196 -665 338 -1025 393 -124 19
-469 27 -590 15z m-108 -887 l3 -118 142 -3 143 -3 2 -647 3 -647 110 0 110 0
3 653 2 652 128 0 c86 0 132 4 140 12 8 8 12 45 12 100 l0 88 240 0 240 0 0
-88 c0 -126 0 -126 149 -130 l121 -4 0 -760 c-1 -613 2 -763 12 -769 7 -5 68
-9 136 -9 l122 0 0 -106 c0 -147 -2 -144 125 -144 l105 0 0 -385 0 -385 -99 0
c-55 0 -106 -3 -115 -6 -13 -5 -16 -26 -16 -125 l0 -119 -118 0 c-78 0 -122
-4 -130 -12 -8 -8 -12 -51 -12 -125 l0 -114 -1157 3 -1158 3 -5 120 -5 120
-112 3 -113 3 0 113 c0 146 2 144 -148 148 l-111 3 -2 385 -2 385 114 5 114 5
3 123 3 122 119 0 c108 0 120 2 130 19 7 13 10 270 10 765 l0 746 130 0 130 0
0 104 c0 57 3 111 6 120 5 14 37 16 250 16 l243 0 3 -117z"/>
<path d="M1920 1925 l0 -275 125 0 125 0 -2 273 -3 272 -122 3 -123 3 0 -276z"/>
<path d="M2937 2194 c-4 -4 -7 -126 -7 -271 l0 -263 145 0 145 0 -2 268 -3
267 -136 3 c-74 1 -138 -1 -142 -4z"/>
<path d="M2430 1530 l0 -130 120 0 121 0 -3 128 -3 127 -117 3 -118 3 0 -131z"/>
</g>
</svg>
